<?xml version="1.0" encoding="UTF-8"?>
<svg xmlns="http://www.w3.org/2000/svg" version="1.1" viewBox="0 0 720 720">
  <!-- Generator: Adobe Illustrator 30.2.1, SVG Export Plug-In . SVG Version: 2.1.1 Build 1)  -->
  <g id="Layer_1">
    <path d="M674.18,274.92l-.63,38.61-78.14,23.95c3.36,43.74,38.26,67.77,75.81,81.16l2.93,59.19c-26.96-20.44-239.58-95.71-242.54-108.67-1.34-5.86-.23-17.74,3.27-22.69l239.31-71.54h0Z"/>
  </g>
  <g id="Layer_9">
    <path d="M287.08,347.7l-5.51,28.82-235.75,68.56.63-38.61,78.14-23.95c-3.36-43.74-38.26-67.77-75.81-81.16l-2.93-59.19,241.24,105.53h-.01Z"/>
  </g>
  <g id="Layer_3">
    <path d="M334.43,117.16c11,7.77,46.97-12.05,56.06-21.24,32.52-32.86,7.85-71.57,87.33-56.62l-108.16,248.97-23.17-3.15-71.69-242.52c48.97-20.89,44.78,45.26,59.64,74.57h-.01Z"/>
  </g>
  <g id="Layer_4">
    <path d="M445.07,680.73l-36.08-6.4-26.89-72.63c-13.64-2.91-42.83,12.49-52.62,22.38-32.52,32.85-7.85,71.57-87.33,56.62l105.16-248.27,29.17,6,68.57,242.31h.02Z"/>
  </g>
  <g id="Layer_5">
    <path d="M71.97,209.36c21.54-60.93,85.03,17.81,108.1-6.31,23.46-37.03,3.25-71-9.24-106.83l38.52-43.85,110.35,244.5-12.2,14.42-235.51-101.93h-.02Z"/>
  </g>
  <g id="Layer_6">
    <path d="M511.14,176.1c19.38,7.33,41.21,9.64,61.77,7.29,17.97-2.06,39.01-17.9,45.61-17.51,8.06.49,50.63,34.46,42.6,43.5l-242.08,101.91-12.2-14.42,100.65-218.34c9.08-12.01,29.16,5.25,29.3,16.05.22,16.9-36.16,65.99-25.66,81.52h.01Z"/>
  </g>
  <g id="Layer_7">
    <path d="M208.84,543.9c-19.38-7.33-41.21-9.64-61.77-7.29-17.97,2.06-39.01,17.9-45.61,17.51-8.06-.49-50.63-34.46-42.6-43.5l242.08-101.91,12.2,14.42-100.65,218.34c-9.08,12.01-29.16-5.25-29.3-16.05-.22-16.9,36.16-65.99,25.66-81.52h-.01Z"/>
  </g>
  <g id="Layer_8">
    <path d="M648.01,510.64c-21.54,60.93-85.03-17.81-108.1,6.31-23.46,37.03-3.25,71,9.24,106.83l-38.52,43.85-110.35-244.5,12.2-14.42,235.51,101.93h.02Z"/>
  </g>
</svg>